:SAMPLES-PER-SECOND 30
:FULLY-SPECIFIED
:DEGREES
352
root  -6.179466773 38.27244316 11.60617813 -7.062988281 -73.16999817 12.13397217
lowerback  15.06060028 4.80614996 -3.274369955
upperback  5.349699974 5.533380032 -2.022409916
thorax  -2.844850063 2.636310101 -1.231830001
lowerneck  -3.863620043 3.511670113 -6.064229965
upperneck  5.7707901 4.644080162 6.825270176
head  2.222369909 2.368769884 3.453449965
lclavicle  0 -9.442270133e-015 7.951389973e-016
lhumerus  -18.38489914 -17.86849976 88.59539795
lradius  2.24002678e-031 -2.729674717e-031 129.3730011
lwrist  -1.412450015e-030 7.062250077e-031 49.98239899
lhand  -1.496451383e-031 -27.76390076 20.11240005
lfingers  90 7.125020027 -90
lthumb  89.89689403 5.08795885 91.16245106
rclavicle  0 -9.442270133e-015 7.951389973e-016
rhumerus  -17.01449966 17.62100029 -89.87290192
rradius  4.649489986e-032 3.500380903e-031 82.43379974
rwrist  3.531125038e-031 7.062250077e-031 -59.55849838
rhand  -7.920061211e-032 -33.2840004 9.303460121
rfingers  -90 -7.125020027 -90
rthumb  -92.93752616 -24.25625642 -97.11982154
rfemur  -17.86039925 7.210269928 4.736629963
rtibia  -0 0 71.68450165
rfoot  -0 -13.8427 -11.30749989
rtoes  5.373923086 19.29304026 -105.8922705
lfemur  -36.00519943 0.3507860005 -7.566420078
ltibia  -0 0 48.09019852
lfoot  -0 -6.831089973 -13.97920036
ltoes  -4.250644065 -19.5611806 -102.515957
353
root  -6.069111261 38.0951108 11.54051127 -8.172973633 -72.6989975 12.84997559
lowerback  15.10599995 4.45773983 -3.33017993
upperback  5.312280178 5.068349838 -2.010390043
thorax  -2.911829948 2.407480001 -1.111320019
lowerneck  -3.901570082 3.452049971 -6.017240047
upperneck  5.229489803 4.584700108 6.860209942
head  2.054470062 2.344540119 3.441299915
lclavicle  0 -9.442270133e-015 7.951389973e-016
lhumerus  -17.99220085 -17.03019905 87.97429657
lradius  2.249066507e-031 -2.722231416e-031 129.5630035
lwrist  -7.062250077e-031 5.296687558e-031 49.91600037
lhand  -1.496451383e-031 -27.76390076 20.11240005
lfingers  90 7.125020027 -90
lthumb  89.89689403 5.08795885 91.16245106
rclavicle  0 -9.442270133e-015 7.951389973e-016
rhumerus  -18.05750084 17.2201004 -89.78990173
rradius  4.139928194e-032 3.506772588e-031 83.26709747
rwrist  7.062250077e-031 7.062250077e-031 -59.32500076
rhand  -7.920061211e-032 -33.2840004 9.303460121
rfingers  -90 -7.125020027 -90
rthumb  -92.93752616 -24.25625642 -97.11982154
rfemur  -17.16629982 7.241769791 4.697869778
rtibia  -0 0 71.29470062
rfoot  -0 -12.20400047 -9.741689682
rtoes  5.373923086 19.29304026 -105.8922705
lfemur  -36.00159836 0.6038590074 -8.273010254
ltibia  -0 0 48.46350098
lfoot  -0 -7.944650173 -13.36950016
ltoes  -4.250644065 -19.5611806 -102.515957
354
root  -5.962844533 37.92222091 11.46893314 -9.452026367 -72.33200073 13.71099854
lowerback  15.11769962 4.136980057 -3.51064992
upperback  5.323430061 4.620910168 -2.017199993
thorax  -2.916009903 2.184959888 -0.9389889836
lowerneck  -3.824320078 3.433870077 -6.016379833
upperneck  4.637949944 4.574920177 6.989649773
head  1.843670011 2.343770027 3.466700077
lclavicle  0 -9.442270133e-015 7.951389973e-016
lhumerus  -17.32780075 -16.0060997 87.18509674
lradius  2.252295407e-031 -2.719560523e-031 129.6309967
lwrist  0 7.062250077e-031 50.02769852
lhand  -1.496451383e-031 -27.76390076 20.11240005
lfingers  90 7.125020027 -90
lthumb  89.89689403 5.08795885 91.16245106
rclavicle  0 -9.442270133e-015 7.951389973e-016
rhumerus  -18.82390022 16.84560013 -89.73560333
rradius  3.65517157e-032 3.51215621e-031 84.0585022
rwrist  3.531125038e-031 3.531125038e-031 -59.46070099
rhand  -7.920061211e-032 -33.2840004 9.303460121
rfingers  -90 -7.125020027 -90
rthumb  -92.93752616 -24.25625642 -97.11982154
rfemur  -16.18849945 7.454979897 4.665229797
rtibia  -0 0 69.79959869
rfoot  -0 -12.44229984 -8.545220375
rtoes  5.373923086 19.29304026 -105.8922705
lfemur  -35.94900131 0.6778630018 -8.95911026
ltibia  -0 0 48.88479996
lfoot  -0 -9.378899574 -11.81639957
ltoes  -4.250644065 -19.5611806 -102.515957
355
root  -5.839222059 37.76244516 11.3968669 -10.43798828 -72.09300232 14.20599365
lowerback  15.21860027 3.884089947 -3.46262002
upperback  5.403470039 4.289120197 -2.020910025
thorax  -2.877830029 2.018810034 -0.9135460258
lowerneck  -3.947139978 3.400259972 -5.962279797
upperneck  4.245840073 4.542019844 7.146679878
head  1.737959981 2.334749937 3.503859997
lclavicle  0 -9.442270133e-015 7.951389973e-016
lhumerus  -16.4333992 -15.20009995 86.51580048
lradius  2.248068792e-031 -2.723055406e-031 129.5420074
lwrist  -7.062250077e-031 8.827812596e-031 50.13119888
lhand  -1.496451383e-031 -27.76390076 20.11240005
lfingers  90 7.125020027 -90
lthumb  89.89689403 5.08795885 91.16245106
rclavicle  0 -9.442270133e-015 7.951389973e-016
rhumerus  -19.57360077 16.41990089 -89.54250336
rradius  2.98455573e-032 3.518489492e-031 85.15149689
rwrist  7.062250077e-031 7.062250077e-031 -59.86849976
rhand  -7.920061211e-032 -33.2840004 9.303460121
rfingers  -90 -7.125020027 -90
rthumb  -92.93752616 -24.25625642 -97.11982154
rfemur  -15.07279968 7.877130032 4.796659946
rtibia  -0 0 68.16729736
rfoot  -0 -15.10350037 -7.4198699
rtoes  5.373923086 19.29304026 -105.8922705
lfemur  -35.70729828 0.2517380118 -9.340439796
ltibia  -0 0 49.11439896
lfoot  -0 -11.00590038 -10.24629974
ltoes  -4.250644065 -19.5611806 -102.515957
